# xmcd
#
# Track frame offsets:
#	150
#	12645
#	26039
#	41304
#	56878
#	69188
#	83065
#	93862
#	111381
#	123518
#
# Disc length: 1784 seconds
#
# Revision: 0
# Processed by: cddbd v1.4PL0 Copyright (c) Steve Scherf et al.
# Submitted via: EasyCDDAExtractor 4.5.0.2
#
DISCID=7f06f60a
DTITLE=The Wagoneers - Good Fortune
DYEAR=1900
DGENRE=Country
TTITLE0=Sit A Little Closer
TTITLE1=Everybody Calls My Baby Honey
TTITLE2=Por Favor Senor
TTITLE3=Take Me
TTITLE4=Champagne And Chandeliers
TTITLE5=Good Fortune
TTITLE6=She Wouldn't Have It
TTITLE7=Atlanta
TTITLE8=Test Of TIme
TTITLE9=I Can't Stay
EXTD=
EXTT0=
EXTT1=
EXTT2=
EXTT3=
EXTT4=
EXTT5=
EXTT6=
EXTT7=
EXTT8=
EXTT9=
PLAYORDER=
